<svg xmlns="http://www.w3.org/2000/svg" width="1400" height="760" viewBox="0 0 1400 760"><defs><linearGradient id="g" x1="0" y1="0" x2="1" y2="1"><stop stop-color="#7C3AED"/><stop offset=".52" stop-color="#A855F7"/><stop offset="1" stop-color="#00E676"/></linearGradient></defs><rect width="1400" height="760" rx="34" fill="#000" stroke="#181818"/><rect x="28" y="28" width="190" height="704" rx="26" fill="#050505" stroke="#171717"/><rect x="56" y="58" width="48" height="48" rx="14" fill="none" stroke="url(#g)" stroke-width="3"/><text x="80" y="91" text-anchor="middle" fill="white" font-size="22" font-family="Arial" font-weight="900">N</text><g font-family="Arial" font-size="16" fill="#777"><text x="60" y="180" fill="#00E676">⌂  Início</text><text x="60" y="230">◎  Mundo</text><text x="60" y="280">⌕  Buscar</text><text x="60" y="330">♥  Favoritos</text><text x="60" y="380">⚙  Ajustes</text></g><text x="260" y="85" font-family="Arial" font-weight="900" font-size="18" fill="white" letter-spacing="4">NEXORA</text><text x="260" y="115" font-family="Arial" font-size="10" fill="#777" letter-spacing="3">WORLD SIGNAL NETWORK</text><rect x="260" y="150" width="1100" height="280" rx="30" fill="#040404" stroke="#1A1A1A"/><text x="310" y="215" fill="#00E676" font-family="Arial" font-size="13" font-weight="900" letter-spacing="3">TRANSMISSÃO SEM FRONTEIRAS</text><text x="310" y="285" fill="white" font-family="Arial" font-size="48" font-weight="900">O mundo inteiro,</text><text x="310" y="340" fill="white" font-family="Arial" font-size="48" font-weight="900">um sinal de cada vez.</text><circle cx="1170" cy="290" r="88" fill="none" stroke="url(#g)" stroke-width="4"/><text x="1170" y="315" text-anchor="middle" font-size="62">🌍</text><text x="260" y="490" fill="white" font-family="Arial" font-weight="900" font-size="24">Seus países</text><g font-family="Arial" font-weight="900"><rect x="260" y="525" width="250" height="165" rx="22" fill="#020202" stroke="url(#g)"/><text x="290" y="585" font-size="42">🇧🇷</text><text x="290" y="640" fill="white" font-size="20">Brasil</text><text x="290" y="665" fill="#777" font-size="12">BR · abrir canais</text><rect x="530" y="525" width="250" height="165" rx="22" fill="#020202" stroke="url(#g)"/><text x="560" y="585" font-size="42">🇵🇹</text><text x="560" y="640" fill="white" font-size="20">Portugal</text><text x="560" y="665" fill="#777" font-size="12">PT · abrir canais</text><rect x="800" y="525" width="250" height="165" rx="22" fill="#020202" stroke="url(#g)"/><text x="830" y="585" font-size="42">🇷🇺</text><text x="830" y="640" fill="white" font-size="20">Rússia</text><text x="830" y="665" fill="#777" font-size="12">RU · abrir canais</text></g></svg>